<svg id="Layer_1" enable-background="new 0 0 512 512" viewBox="0 0 512 512" xmlns="http://www.w3.org/2000/svg"><g clip-rule="evenodd" fill-rule="evenodd"><path d="m113.85 124.2c-31.85 33.84-51.86 78.92-53.36 128.59h30.49c3.32 0 6 2.69 6 6s-2.68 6-6 6h-30.49c3.18 105.6 90.07 190.53 196.43 190.53s193.24-84.93 196.43-190.53h-30.5c-3.31 0-6-2.69-6-6s2.69-6 6-6h30.5c-1.5-49.66-21.51-94.75-53.36-128.58l-21.49 21.49c-1.17 1.17-2.71 1.76-4.25 1.76-1.53 0-3.07-.58-4.24-1.76-2.34-2.34-2.34-6.14 0-8.48l21.5-21.5c-33.84-31.85-78.92-51.86-128.59-53.36v30.49c0 3.32-2.69 6-6 6s-6-2.69-6-6v-30.49c-49.67 1.49-94.75 21.51-128.59 53.36l21.5 21.5c2.34 2.34 2.34 6.14 0 8.48-1.17 1.17-2.71 1.76-4.24 1.76-1.54 0-3.07-.58-4.25-1.76zm148.41 98.32 68.1-61.9c.99-.91 2.26-1.45 3.6-1.54l17.52-1.27c1.74-.13 3.44.51 4.68 1.74 1.23 1.23 1.86 2.94 1.74 4.67l-1.27 17.52c-.09 1.34-.64 2.61-1.54 3.61l-61.91 68.1c.26 1.74.4 3.52.4 5.34 0 20.21-16.45 36.66-36.66 36.66s-36.66-16.45-36.66-36.66 16.45-36.66 36.66-36.66c1.81 0 3.59.14 5.34.39zm126.25 107.56v-50.01c0-3.31 2.68-6 6-6h20.75c3.31 0 6 2.69 6 6 0 3.32-2.69 6-6 6h-14.75v13.01h14.75c3.31 0 6 2.68 6 6 0 3.31-2.69 6-6 6h-14.75v19.01c0 3.31-2.69 6-6 6-3.32-.01-6-2.7-6-6.01zm-269.17-56.02c3.31 0 6 2.69 6 6 0 3.32-2.69 6-6 6h-14.76v13.01h14.76c3.31 0 6 2.68 6 6 0 3.31-2.69 6-6 6h-14.76v13.01h14.76c3.31 0 6 2.69 6 6s-2.69 6-6 6h-20.76c-3.31 0-6-2.69-6-6v-50.01c0-3.31 2.69-6 6-6h20.76zm107.12 54.74h60.92c3.32 0 6 2.69 6 6v22.73l16.13 7.41c7.44 3.41 12.05 10.62 12.05 18.79v6.35c0 11.4-9.27 20.68-20.68 20.68h-7.5v10.66h.99c3.31 0 6 2.69 6 6 0 3.32-2.69 6-6 6h-74.9c-3.31 0-6-2.68-6-6 0-3.31 2.69-6 6-6h.99v-86.62c0-3.31 2.68-6 6-6z" fill="#2a7abd"/><g fill="#1d5074"><path d="m256.92 234.13c-13.6 0-24.66 11.06-24.66 24.66 0 13.59 11.06 24.65 24.66 24.65s24.66-11.06 24.66-24.65c0-13.6-11.06-24.66-24.66-24.66z"/><path d="m336.9 170.89-61.74 56.12c5.62 3.23 10.3 7.92 13.54 13.53l56.11-61.74.62-8.54z"/><path d="m232.46 340.8h48.92v32.81h-48.92z"/><path d="m232.46 385.6h48.92v35.82h-48.92z"/><path d="m293.38 370.74v28.03h7.5c4.79 0 8.68-3.9 8.68-8.68v-6.35c0-3.54-1.84-6.41-5.06-7.89z"/><path d="m465.45 258.79c0 114.98-93.55 208.53-208.53 208.53s-208.53-93.54-208.53-208.53c0-114.98 93.55-208.53 208.53-208.53 114.98 0 208.53 93.54 208.53 208.53zm20.47 0c0-126.27-102.73-229-229-229s-229 102.73-229 229 102.73 229 229 229 229-102.73 229-229z"/></g></g></svg>