<svg height="512" viewBox="0 0 64 64" width="512" xmlns="http://www.w3.org/2000/svg"><g id="Navigation-2" data-name="Navigation"><path d="m33 11.44v3.56a2 2 0 0 1 -2 2h-28a2 2 0 0 1 -2-2v-4.77a2 2 0 0 1 1.1-1.78l.9-.45 4.4-6.16a2.26 2.26 0 0 1 1.6-.84h12a2 2 0 0 1 1.63.84l4 5.63a2.11 2.11 0 0 0 1 .74l4 1.33a2 2 0 0 1 1.37 1.9z" fill="#0074ff"/><circle cx="8" cy="17" fill="#96a1c3" r="4"/><path d="m8 18a1 1 0 1 1 1-1 1 1 0 0 1 -1 1z" fill="#f5f7ff"/><circle cx="25" cy="17" fill="#96a1c3" r="4"/><path d="m25 18a1 1 0 1 1 1-1 1 1 0 0 1 -1 1z" fill="#f5f7ff"/><path d="m27 8h-10a2 2 0 0 1 -2-2v-5h6a2 2 0 0 1 1.63.84z" fill="#f5f7ff"/><path d="m63 3v4a2 2 0 0 1 -2 2h-9l-5 3v-9a2 2 0 0 1 2-2h12a2 2 0 0 1 2 2z" fill="#f5f7ff"/><path d="m51 6a1 1 0 1 1 1-1 1 1 0 0 1 -1 1z" fill="#0074ff"/><path d="m55 6a1 1 0 1 1 1-1 1 1 0 0 1 -1 1z" fill="#0074ff"/><path d="m59 6a1 1 0 1 1 1-1 1 1 0 0 1 -1 1z" fill="#0074ff"/><ellipse cx="55" cy="60" fill="#f5f7ff" rx="6" ry="3"/><path d="m60.87 52.43c-4.2 4.52-5.3 6.66-5.22 6.52a.76.76 0 0 1 -1.3 0 33.08 33.08 0 0 0 -4.93-6.22 8 8 0 1 1 11.45-.3z" fill="#0074ff"/><circle cx="55" cy="47" fill="#f5f7ff" r="4"/><circle cx="41" cy="16" fill="#ccd3eb" r="3"/><path d="m26 32 3 6-12-6 12-6z" fill="#0074ff"/><circle cx="40" cy="48" fill="#ccd3eb" r="3"/><g fill="#033c59"><path d="m3.1 18a5 5 0 0 0 9.8 0h4.1a1 1 0 0 0 0-2h-4.1a5 5 0 0 0 -9.8 0h-.1a1 1 0 0 1 -1-1v-4.77a1 1 0 0 1 .56-.89l.82-.42c.39-.15.1.14 4.83-6.5a1.31 1.31 0 0 1 .79-.42h5v4a3 3 0 0 0 3 3c11.35 0 9.66-.07 10.31.16l4 1.33a1 1 0 0 1 .69.95v3.56a1 1 0 0 1 -1 1h-1.1a5 5 0 1 0 0 2h1.1a3 3 0 0 0 3-3v-3.56a3 3 0 0 0 -2.06-2.85l-3.94-1.32c-.46-.17-.23 0-4.54-6a3 3 0 0 0 -2.46-1.27h-12a3.23 3.23 0 0 0 -2.41 1.26l-4.25 5.94-.69.36a3 3 0 0 0 -1.65 2.67v4.77a3 3 0 0 0 3.1 3zm4.9-4a3 3 0 1 1 -3 3 3 3 0 0 1 3-3zm17 6a3 3 0 1 1 3-3 3 3 0 0 1 -3 3zm-3.21-17.58 3.27 4.58h-8.06a1 1 0 0 1 -1-1v-4h5a1 1 0 0 1 .79.42z"/><path d="m18 49a1 1 0 0 0 0-2h-2a1 1 0 0 0 0 2z"/><path d="m55 15h-10.14a4 4 0 1 0 0 2h10.14a7 7 0 1 1 0 14h-27.38l2.27-4.55a1 1 0 0 0 -1.34-1.34l-11.79 5.89h-7.76a9 9 0 0 0 0 18h3a1 1 0 0 0 0-2h-3a7 7 0 0 1 0-14h7.76c12.74 6.37 11.89 6 12.24 6a1 1 0 0 0 .89-1.45l-2.27-4.55h27.38a9 9 0 0 0 0-18zm-14 3a2 2 0 1 1 2-2 2 2 0 0 1 -2 2zm-21.76 14 7.52-3.76-1.65 3.31a1 1 0 0 0 0 .9l1.65 3.31z"/><path d="m63.91 45.7a9 9 0 0 0 -17.91 1.3 8.92 8.92 0 0 0 2.73 6.45 27.53 27.53 0 0 1 2.72 3.09c-5.89 1.88-3.94 7.46 3.55 7.46s9.41-5.53 3.61-7.44c1-1.22 2-2.37 3-3.45a9 9 0 0 0 2.3-7.41zm-3.91 14.3c0 .82-2 2-5 2s-5-1.18-5-2c0-.58 1-1.35 2.69-1.74.27.4.54.8.81 1.22a1.77 1.77 0 0 0 3 0c.26-.41.55-.81.83-1.22 1.67.4 2.67 1.17 2.67 1.74zm-5-1.88a33.66 33.66 0 0 0 -4.88-6.12 7 7 0 1 1 10-.26 46.51 46.51 0 0 0 -5.12 6.38z"/><path d="m15 11a1 1 0 0 0 0 2h2a1 1 0 0 0 0-2z"/><path d="m40 44a4 4 0 0 0 -3.86 3h-14.14a1 1 0 0 0 0 2h14.14a4 4 0 1 0 3.86-5zm0 6a2 2 0 1 1 2-2 2 2 0 0 1 -2 2z"/><path d="m47 13a1 1 0 0 1 -1-1v-9a3 3 0 0 1 3-3h12a3 3 0 0 1 3 3v4a3 3 0 0 1 -3 3h-8.72c-4.91 2.94-4.86 3-5.28 3zm2-11a1 1 0 0 0 -1 1v7.23c3.74-2.23 3.62-2.23 4-2.23h9a1 1 0 0 0 1-1v-4a1 1 0 0 0 -1-1z"/></g><path d="m7 61v-4a2 2 0 0 1 2-2h9l5-3v9a2 2 0 0 1 -2 2h-12a2 2 0 0 1 -2-2z" fill="#f5f7ff"/><path d="m19 58a1 1 0 1 1 -1 1 1 1 0 0 1 1-1z" fill="#0074ff"/><path d="m15 58a1 1 0 1 1 -1 1 1 1 0 0 1 1-1z" fill="#0074ff"/><path d="m11 58a1 1 0 1 1 -1 1 1 1 0 0 1 1-1z" fill="#0074ff"/><path d="m23 51a1 1 0 0 1 1 1v9a3 3 0 0 1 -3 3h-12a3 3 0 0 1 -3-3v-4a3 3 0 0 1 3-3h8.72c4.91-2.94 4.86-3 5.28-3zm-2 11a1 1 0 0 0 1-1v-7.23c-3.74 2.23-3.62 2.23-4 2.23h-9a1 1 0 0 0 -1 1v4a1 1 0 0 0 1 1z" fill="#033c59"/></g></svg>