<svg width="92" height="90" viewBox="0 0 92 90" fill="none" xmlns="http://www.w3.org/2000/svg">
<path d="M44.0012 88.5L83.9672 39.3851C84.8616 38.2861 84.865 36.7112 83.9755 35.6082L73.9006 23.1166C73.3311 22.4105 72.4726 22 71.5654 22H15.656C14.7622 22 13.915 22.3985 13.345 23.087L2.54292 36.1361C1.64249 37.2239 1.62249 38.7923 2.4949 39.9026L11.0992 50.8535C11.6679 51.5773 12.5375 52 13.4581 52H44.0012H25H40H46H63.4007C63.698 52 63.9799 51.8677 64.1699 51.639L74.1327 39.6459C74.675 38.9932 74.2089 38.0042 73.3602 38.0069L11.6763 38.2072C10.8216 38.21 10.3576 37.2087 10.9122 36.5583L17.0585 29.3511C17.2485 29.1283 17.5266 29 17.8194 29H41.8573C42.7066 29 43.1693 29.9919 42.6234 30.6426L19.5538 58.1475C18.6469 59.2288 18.6162 60.796 19.4802 61.9119L29.2274 74.502C29.622 75.0118 30.3888 75.0204 30.7949 74.5197L90 1.5" stroke="url(#paint0_linear_2701_21489)" stroke-width="3"/>
<defs>
<linearGradient id="paint0_linear_2701_21489" x1="87" y1="3.50005" x2="18.5525" y2="0.714244" gradientUnits="userSpaceOnUse">
<stop stop-color="#6720FF"/>
<stop offset="0.572566" stop-color="#FF1E5E"/>
<stop offset="1" stop-color="#FF8101"/>
</linearGradient>
</defs>
</svg>
