<svg width="220" height="213" viewBox="0 0 220 213" fill="none" xmlns="http://www.w3.org/2000/svg">
<path d="M111.001 118.5L150.967 69.3851C151.862 68.2861 151.865 66.7112 150.975 65.6082L140.901 53.1166C140.331 52.4105 139.473 52 138.565 52H82.656C81.7622 52 80.915 52.3985 80.345 53.087L69.5429 66.1361C68.6425 67.2239 68.6225 68.7923 69.4949 69.9026L78.0992 80.8535C78.6679 81.5773 79.5375 82 80.4581 82H111.001H92H107H113H130.401C130.698 82 130.98 81.8677 131.17 81.639L141.133 69.6459C141.675 68.9932 141.209 68.0042 140.36 68.0069L78.6763 68.2072C77.8216 68.21 77.3576 67.2087 77.9122 66.5583L84.0585 59.3511C84.2485 59.1283 84.5266 59 84.8194 59H108.857C109.707 59 110.169 59.9919 109.623 60.6426L86.5538 88.1475C85.6469 89.2288 85.6162 90.796 86.4802 91.9119L96.2274 104.502C96.622 105.012 97.3888 105.02 97.7949 104.52L157 31.5" stroke="url(#paint0_linear_2701_21487)" stroke-width="3"/>
<path d="M110 124C107.791 124 106 122.209 106 120C106 117.791 107.791 116 110 116C112.209 116 114 117.791 114 120C114 122.209 112.209 124 110 124Z" fill="#ED1F71"/>
<path d="M157 36C154.791 36 153 34.2091 153 32C153 29.7909 154.791 28 157 28C159.209 28 161 29.7909 161 32C161 34.2091 159.209 36 157 36Z" fill="#6E20F8" stroke="#A842F9" stroke-width="1.6"/>
<path d="M91 86C88.7909 86 87 84.2091 87 82C87 79.7909 88.7909 78 91 78C93.2091 78 95 79.7909 95 82C95 84.2091 93.2091 86 91 86Z" fill="#FF5F30"/>
<path d="M55.1226 202V191.2H59.3901C59.4951 191.2 59.6201 191.205 59.7651 191.215C59.9101 191.22 60.0501 191.235 60.1851 191.26C60.7701 191.35 61.2601 191.55 61.6551 191.86C62.0551 192.17 62.3551 192.562 62.5551 193.037C62.7551 193.507 62.8551 194.03 62.8551 194.605C62.8551 195.44 62.6376 196.165 62.2026 196.78C61.7676 197.39 61.1301 197.772 60.2901 197.927L59.7801 198.01H56.4576V202H55.1226ZM61.5501 202L59.4201 197.605L60.7401 197.2L63.0801 202H61.5501ZM56.4576 196.742H59.3451C59.4401 196.742 59.5476 196.737 59.6676 196.727C59.7926 196.717 59.9101 196.7 60.0201 196.675C60.3651 196.595 60.6451 196.45 60.8601 196.24C61.0801 196.025 61.2401 195.775 61.3401 195.49C61.4401 195.2 61.4901 194.905 61.4901 194.605C61.4901 194.305 61.4401 194.012 61.3401 193.727C61.2401 193.437 61.0801 193.185 60.8601 192.97C60.6451 192.755 60.3651 192.61 60.0201 192.535C59.9101 192.505 59.7926 192.487 59.6676 192.482C59.5476 192.472 59.4401 192.467 59.3451 192.467H56.4576V196.742ZM66.0819 202V191.2H67.4169V202H66.0819ZM70.8673 202V191.2H74.1973C74.3073 191.2 74.4998 191.202 74.7748 191.207C75.0498 191.212 75.3123 191.232 75.5623 191.267C76.3973 191.377 77.0948 191.682 77.6548 192.182C78.2198 192.677 78.6448 193.307 78.9298 194.072C79.2148 194.837 79.3573 195.68 79.3573 196.6C79.3573 197.52 79.2148 198.362 78.9298 199.127C78.6448 199.892 78.2198 200.525 77.6548 201.025C77.0948 201.52 76.3973 201.822 75.5623 201.932C75.3123 201.962 75.0473 201.982 74.7673 201.992C74.4923 201.997 74.3023 202 74.1973 202H70.8673ZM72.2398 200.725H74.1973C74.3873 200.725 74.5998 200.72 74.8348 200.71C75.0698 200.695 75.2748 200.672 75.4498 200.642C76.0398 200.532 76.5173 200.285 76.8823 199.9C77.2473 199.515 77.5148 199.035 77.6848 198.46C77.8548 197.885 77.9398 197.265 77.9398 196.6C77.9398 195.92 77.8523 195.292 77.6773 194.717C77.5073 194.142 77.2398 193.665 76.8748 193.285C76.5098 192.905 76.0348 192.662 75.4498 192.557C75.2748 192.522 75.0673 192.5 74.8273 192.49C74.5873 192.48 74.3773 192.475 74.1973 192.475H72.2398V200.725ZM82.2772 202V191.2H89.1022V192.467H83.6122V195.85H88.2022V197.117H83.6122V200.732H89.1022V202H82.2772ZM96.4581 202V191.2H97.7931V202H96.4581ZM101.243 202V191.2H102.593L108.226 199.637V191.2H109.576V202H108.226L102.593 193.555V202H101.243ZM120.909 202.225C120.144 202.225 119.454 202.095 118.839 201.835C118.229 201.575 117.724 201.205 117.324 200.725C116.929 200.24 116.671 199.667 116.551 199.007L117.931 198.79C118.106 199.47 118.469 200.002 119.019 200.387C119.574 200.767 120.226 200.957 120.976 200.957C121.461 200.957 121.899 200.882 122.289 200.732C122.684 200.577 122.996 200.357 123.226 200.073C123.456 199.787 123.571 199.45 123.571 199.06C123.571 198.82 123.529 198.615 123.444 198.445C123.364 198.27 123.251 198.122 123.106 198.002C122.966 197.877 122.806 197.772 122.626 197.687C122.446 197.602 122.259 197.532 122.064 197.477L119.311 196.66C119.011 196.57 118.721 196.457 118.441 196.322C118.161 196.182 117.911 196.01 117.691 195.805C117.471 195.595 117.296 195.345 117.166 195.055C117.036 194.76 116.971 194.412 116.971 194.012C116.971 193.372 117.136 192.827 117.466 192.377C117.801 191.922 118.254 191.575 118.824 191.335C119.394 191.095 120.036 190.977 120.751 190.982C121.476 190.987 122.124 191.117 122.694 191.372C123.269 191.622 123.744 191.982 124.119 192.452C124.499 192.922 124.754 193.485 124.884 194.14L123.466 194.387C123.391 193.947 123.224 193.57 122.964 193.255C122.709 192.935 122.389 192.69 122.004 192.52C121.619 192.345 121.196 192.255 120.736 192.25C120.296 192.245 119.899 192.315 119.544 192.46C119.189 192.605 118.906 192.807 118.696 193.067C118.486 193.322 118.381 193.617 118.381 193.952C118.381 194.282 118.476 194.55 118.666 194.755C118.856 194.955 119.089 195.115 119.364 195.235C119.644 195.35 119.916 195.445 120.181 195.52L122.236 196.112C122.471 196.177 122.741 196.267 123.046 196.382C123.356 196.497 123.656 196.66 123.946 196.87C124.236 197.075 124.476 197.35 124.666 197.695C124.856 198.035 124.951 198.465 124.951 198.985C124.951 199.505 124.846 199.967 124.636 200.372C124.431 200.777 124.144 201.117 123.774 201.392C123.404 201.662 122.974 201.867 122.484 202.008C121.994 202.153 121.469 202.225 120.909 202.225ZM130.507 202V192.467H126.824V191.2H135.524V192.467H131.842V202H130.507ZM140.96 202V197.507L137.323 191.2H138.875L141.635 195.977L144.388 191.2H145.94L142.31 197.507V202H140.96ZM148.336 202V191.2H149.671V200.732H154.681V202H148.336ZM157.15 202V191.2H163.975V192.467H158.485V195.85H163.075V197.117H158.485V200.732H163.975V202H157.15Z" fill="white"/>
<path d="M53.953 174V146.64H71.623V150.934H58.532V157.679H69.343V161.973H58.532V169.706H71.623V174H53.953ZM80.3615 174V146.64H84.9405V169.706H97.0245V174H80.3615ZM104.423 174V146.64H109.002V174H104.423ZM125.068 174V150.934H116.214V146.64H138.501V150.934H129.647V174H125.068ZM145.339 174V146.64H163.009V150.934H149.918V157.679H160.729V161.973H149.918V169.706H163.009V174H145.339Z" fill="url(#paint1_linear_2701_21487)"/>
<defs>
<linearGradient id="paint0_linear_2701_21487" x1="154" y1="33.5001" x2="85.5525" y2="30.7142" gradientUnits="userSpaceOnUse">
<stop stop-color="#6720FF"/>
<stop offset="0.572566" stop-color="#FF1E5E"/>
<stop offset="1" stop-color="#FF8101"/>
</linearGradient>
<linearGradient id="paint1_linear_2701_21487" x1="318.992" y1="75.5455" x2="-19.23" y2="198.696" gradientUnits="userSpaceOnUse">
<stop stop-color="#6720FF"/>
<stop offset="0.572566" stop-color="#FF1E5E"/>
<stop offset="1" stop-color="#FF8101"/>
</linearGradient>
</defs>
</svg>
